<?xml version="1.0" encoding="UTF-8" standalone="no"?>
<svg
   xmlns:dc="http://purl.org/dc/elements/1.1/"
   xmlns:cc="http://creativecommons.org/ns#"
   xmlns:rdf="http://www.w3.org/1999/02/22-rdf-syntax-ns#"
   xmlns:svg="http://www.w3.org/2000/svg"
   xmlns="http://www.w3.org/2000/svg"
   xmlns:sodipodi="http://sodipodi.sourceforge.net/DTD/sodipodi-0.dtd"
   xmlns:inkscape="http://www.inkscape.org/namespaces/inkscape"
   version="1.2"
   x="0px"
   y="0px"
   viewBox="0 0 100 125"
   xml:space="preserve"
   id="svg3396"
   inkscape:version="0.91 r13725"
   sodipodi:docname="cow.svg"><metadata
     id="metadata3416"><rdf:RDF><cc:Work
         rdf:about=""><dc:format>image/svg+xml</dc:format><dc:type
           rdf:resource="http://purl.org/dc/dcmitype/StillImage" /></cc:Work></rdf:RDF></metadata><defs
     id="defs3414" /><sodipodi:namedview
     pagecolor="#ffffff"
     bordercolor="#666666"
     borderopacity="1"
     objecttolerance="10"
     gridtolerance="10"
     guidetolerance="10"
     inkscape:pageopacity="0"
     inkscape:pageshadow="2"
     inkscape:window-width="1920"
     inkscape:window-height="1056"
     id="namedview3412"
     showgrid="false"
     inkscape:zoom="5.1986491"
     inkscape:cx="51.667789"
     inkscape:cy="50.261157"
     inkscape:window-x="0"
     inkscape:window-y="24"
     inkscape:window-maximized="1"
     inkscape:current-layer="svg3396" /><rect
     x="39.807644"
     y="91.349754"
     width="5"
     height="5"
     id="rect3398"
     style="fill:#ffffff" /><rect
     x="54.807644"
     y="91.349754"
     width="5"
     height="5"
     id="rect3400"
     style="fill:#ffffff" /><path
     d="m 13.557642,51.349752 c 1.343,0 2.612,-0.313 3.75,-0.856 l 0,14.214 c 0,9.055 3.597,17.739 10,24.142 l 0,5 c 0,8.283998 6.716,14.999998 15,14.999998 l 15,0 c 8.284,0 15,-6.716 15,-14.999998 l 0,-5 c 6.403,-6.403 10,-15.087 10,-24.142 l 0,-14.214 c 1.138,0.543 2.407,0.856 3.75,0.856 4.825,0 8.75,-3.925 8.75,-8.75 l 0,-6.25 -12.5,0 0,-10.528 c 0,-3.844 -3.128,-6.972 -6.972,-6.972 -2.868,0 -5.408,1.72 -6.474,4.383 l -2.247,5.617 -33.614,0 -2.247,-5.618 c -1.066,-2.662 -3.606,-4.382 -6.474,-4.382 -3.844,0 -6.972,3.128 -6.972,6.972 l 0,10.528 -12.4999997,0 0,6.25 c 0,4.825 3.925,8.75 8.7499997,8.75 z m 68.75,-10 7.5,0 0,1.25 c 0,2.068 -1.682,3.75 -3.75,3.75 -2.068,0 -3.75,-1.682 -3.75,-3.75 l 0,-1.25 z m -17.5,52.5 c 0,4.135 -3.364,7.499998 -7.5,7.499998 l -15,0 c -4.135,0 -7.5,-3.364998 -7.5,-7.499998 l 0,-2.5 c 0,-2.757 2.243,-5 5,-5 l 20,0 c 2.757,0 5,2.243 5,5 l 0,2.5 z m 8.697,-68.76 c 0.301,-0.753 1.02,-1.24 1.831,-1.24 1.087,0 1.972,0.885 1.972,1.972 l 0,3.028 -5.307,0 1.504,-3.76 z m 1.303,11.26 0,28.358 c 0,7.116 -2.771,13.807 -7.803,18.839 l -0.447,0.447 c -1.781,-1.636 -4.147,-2.644 -6.75,-2.644 l -20,0 c -2.603,0 -4.969,1.008 -6.75,2.643 l -0.447,-0.447 c -5.032,-5.031 -7.803,-11.722 -7.803,-18.838 l 0,-28.358 50,0 z m -52.5,-10.528 c 0,-1.087 0.885,-1.972 1.972,-1.972 0.811,0 1.53,0.487 1.831,1.239 l 1.504,3.761 -5.307,0 0,-3.028 z m -12.4999997,15.528 7.4999997,0 0,1.25 c 0,2.068 -1.682,3.75 -3.75,3.75 -2.068,0 -3.7499997,-1.682 -3.7499997,-3.75 l 0,-1.25 z"
     id="path3402"
     style="fill:#ffffff"
     inkscape:connector-curvature="0" /><path
     d="m 32.307642,58.849752 c 0,-2.757 2.243,-5 5,-5 2.757,0 5,2.243 5,5 l 5,0 c 0,-5.514 -4.486,-10 -10,-10 -5.514,0 -10,4.486 -10,10 l 5,0 z"
     id="path3404"
     style="fill:#ffffff"
     inkscape:connector-curvature="0" /><path
     d="m 57.307642,58.849752 c 0,-2.757 2.243,-5 5,-5 2.757,0 5,2.243 5,5 l 5,0 c 0,-5.514 -4.486,-10 -10,-10 -5.514,0 -10,4.486 -10,10 l 5,0 z"
     id="path3406"
     style="fill:#ffffff"
     inkscape:connector-curvature="0" /></svg>